<svg xmlns="http://www.w3.org/2000/svg" width="22.097" height="22.097" viewBox="0 0 22.097 22.097">
  <g id="facebook" transform="translate(0)">
    <path id="Differenzmenge_1" data-name="Differenzmenge 1" d="M11.049,22.1A11.052,11.052,0,0,1,6.748.868a11.052,11.052,0,0,1,8.6,20.361A10.978,10.978,0,0,1,11.049,22.1ZM8.868,11.484v7.224h2.987V11.484h1.974l.261-2.538H11.855V7.453a.615.615,0,0,1,.637-.692h1.6V4.3l-2.213-.009A2.826,2.826,0,0,0,9.455,5.355,3.349,3.349,0,0,0,8.868,7.3v1.64H7.448v2.542Z" transform="translate(0)" fill="#ffd842"/>
  </g>
</svg>
