<svg xmlns="http://www.w3.org/2000/svg" width="21.128" height="21.128" viewBox="0 0 21.128 21.128">
  <g id="instagram" transform="translate(-2.817 -3.006)">
    <g id="Gruppe_4" transform="translate(2.817 3.006)">
      <path id="Pfad_3" d="M-2912.707-376.1h-9.458a5.84,5.84,0,0,0-5.835,5.835v9.457a5.84,5.84,0,0,0,5.835,5.835h9.458a5.84,5.84,0,0,0,5.835-5.835v-9.457A5.84,5.84,0,0,0-2912.707-376.1Zm3.924,15.293a3.983,3.983,0,0,1-3.974,3.974h-9.457a3.982,3.982,0,0,1-3.974-3.974v-9.457a3.983,3.983,0,0,1,3.974-3.974h9.457a3.982,3.982,0,0,1,3.974,3.974Z" transform="translate(2928 376.1)" fill="#ffd842"/>
      <path id="Pfad_4" d="M-2912.367-365.9a5.41,5.41,0,0,0-5.433,5.433,5.41,5.41,0,0,0,5.433,5.433,5.41,5.41,0,0,0,5.433-5.433A5.442,5.442,0,0,0-2912.367-365.9Zm0,9a3.586,3.586,0,0,1-3.572-3.572,3.586,3.586,0,0,1,3.572-3.572,3.586,3.586,0,0,1,3.572,3.572A3.586,3.586,0,0,1-2912.367-356.9Z" transform="translate(2922.932 371.031)" fill="#ffd842"/>
      <path id="Pfad_5" d="M-2897.142-369.1a1.375,1.375,0,0,0-1.358,1.358,1.375,1.375,0,0,0,1.358,1.358,1.374,1.374,0,0,0,1.358-1.358,1.375,1.375,0,0,0-.4-.956,1.211,1.211,0,0,0-.956-.4Z" transform="translate(2913.34 372.621)" fill="#ffd842"/>
    </g>
  </g>
</svg>
