<svg id="youtube-circle-1c" xmlns="http://www.w3.org/2000/svg" width="22.884" height="22.884" viewBox="0 0 22.884 22.884">
  <path id="Pfad_20" data-name="Pfad 20" d="M20.17,23.011l3.72-2.145L20.17,18.72Zm0,0" transform="translate(-10.153 -9.423)" fill="#ffd842"/>
  <path id="Pfad_21" data-name="Pfad 21" d="M11.442,0A11.442,11.442,0,1,0,22.884,11.442,11.445,11.445,0,0,0,11.442,0Zm7.151,11.452a18.7,18.7,0,0,1-.3,3.442,1.79,1.79,0,0,1-1.256,1.261,43.731,43.731,0,0,1-5.6.293,41.748,41.748,0,0,1-5.6-.308,1.775,1.775,0,0,1-1.256-1.256,19.572,19.572,0,0,1-.3-3.442A18.25,18.25,0,0,1,4.589,8,1.83,1.83,0,0,1,5.845,6.729a43.731,43.731,0,0,1,5.6-.293,41.673,41.673,0,0,1,5.6.308A1.775,1.775,0,0,1,18.3,8a18.308,18.308,0,0,1,.3,3.452Zm0,0" fill="#ffd842"/>
</svg>
