<svg xmlns="http://www.w3.org/2000/svg" width="60" height="43.916" viewBox="0 0 60 43.916">
  <g id="heart" transform="translate(0 -56.4)">
    <g id="Gruppe_16" data-name="Gruppe 16" transform="translate(0 56.4)">
      <path id="Pfad_16" data-name="Pfad 16" d="M58.973,77.446H53.9c2.11-4.791,1.882-8.669,1.084-11.293A13.576,13.576,0,0,0,42.148,56.4a16.045,16.045,0,0,0-5.532,1.027,28.694,28.694,0,0,0-6.388,3.194,27.383,27.383,0,0,0-6.388-3.194A16.29,16.29,0,0,0,18.308,56.4,13.576,13.576,0,0,0,5.475,66.153c-.8,2.795-1.084,7.015,1.6,12.319H.913a.913.913,0,0,0,0,1.825H8.156a12.039,12.039,0,0,0,1.027,1.54C15.114,90.392,28,99.689,30.342,100.259v.057a.177.177,0,0,0,.114-.057h.171V100.2c2-.97,14.373-8.954,20.875-18.422a20.982,20.982,0,0,0,1.6-2.567h5.989A.9.9,0,0,0,60,78.3.958.958,0,0,0,58.973,77.446Zm-9.125,3.365C43.8,89.651,32.681,96.78,30.285,98.32c-2.452-1.54-13.517-8.726-19.62-17.509l-.342-.513h8.384a.941.941,0,0,0,.856-.513l3.821-7.529L29.373,87.6a.934.934,0,0,0,.856.57h.057a.908.908,0,0,0,.856-.684l5.247-17.966,2.795,9.068a.93.93,0,0,0,.741.627.987.987,0,0,0,.913-.4l2.224-3.251,1.882,3.194a.91.91,0,0,0,.8.456h5.133C50.532,79.784,50.19,80.3,49.848,80.811ZM51.9,77.446H46.312l-2.338-3.992a.91.91,0,0,0-.8-.456.863.863,0,0,0-.8.4l-1.939,2.852L37.3,66.039a1.058,1.058,0,0,0-.913-.684.976.976,0,0,0-.913.684l-5.3,18.308-5.76-14.715a.858.858,0,0,0-.8-.57.885.885,0,0,0-.856.513l-4.506,8.84H9.183C6.9,74.252,6.274,70.259,7.3,66.666a11.652,11.652,0,0,1,11.065-8.384,15.172,15.172,0,0,1,4.9.913A27.727,27.727,0,0,1,29.715,62.5a.867.867,0,0,0,1.141,0A24.866,24.866,0,0,1,37.3,59.195a13.788,13.788,0,0,1,4.9-.913A11.708,11.708,0,0,1,53.27,66.666C54.24,69.974,53.726,73.624,51.9,77.446Z" transform="translate(0 -56.4)" fill="#262625"/>
    </g>
  </g>
</svg>
