<svg xmlns="http://www.w3.org/2000/svg" width="65.154" height="57.367" viewBox="0 0 65.154 57.367"><g transform="translate(-116.01 -762.667)"><path d="M253.236,768.948c-.289-.269-.579-.526-.861-.764a1.435,1.435,0,0,0-.392-.323,23.456,23.456,0,1,0-16.747,41.632q1.178.116,2.347.116a23.353,23.353,0,0,0,15.654-40.661Zm4.58,18.447c0,.071-.01.141-.016.212l-.008.107c-.018.239-.038.477-.065.715-.007.063-.015.125-.024.188l-.014.11c-.032.249-.065.5-.106.747l-.038.215c-.049.278-.1.555-.161.832l-.023.1a20.213,20.213,0,0,1-2.535,6.233c-.1-3.68-1.607-7.293-3.071-10.8l-.012-.027a29.436,29.436,0,0,1-2.972-10.285,25.766,25.766,0,0,1,7.9,5.711c.295.319.575.638.833.947a20.431,20.431,0,0,1,.339,3.015v.036c.011.3.015.616.011.933l-.006.236c-.006.259-.015.518-.03.776Zm-6.764,13.98a20.4,20.4,0,0,1-10.927,5.141c-.3.042-.606.079-.918.108l-.137.01-.106.008c-.237.02-.473.039-.711.05-.354.017-.677.025-.987.025-.372,0-.744-.017-1.086-.038,4.938-8.808,6.257-13.962,6.482-32.868a26.775,26.775,0,0,1,3.2.785c0,.085-.006.169-.008.253l0,.059c0,.067-.006.134-.006.2v.03a31.752,31.752,0,0,0,3.268,12.034C251.191,792.161,253.152,796.869,251.052,801.375Zm-2.4-28.787h0Zm.406.152.005-.018c.015-.044.03-.088.055-.152l.013-.032a4.014,4.014,0,0,1,.344-.675,3.236,3.236,0,0,1,1.384-1.163,20.8,20.8,0,0,1,4.569,5.776A28.825,28.825,0,0,0,249.062,772.74Zm-2.143-2.162-.026.043c-.1.171-.177.319-.245.465-.019.041-.037.082-.055.124l-.022.052c-.05.112-.1.228-.145.351l-.04.11-.01.028a29.077,29.077,0,0,0-3.686-.9q.014-2.168.016-4.568a20.393,20.393,0,0,1,5.726,2.555A6.025,6.025,0,0,0,246.918,770.578Zm-7.1-.075c-.7-.05-1.4-.076-2.1-.076q-.621,0-1.239.026a8.508,8.508,0,0,0-.386-1.192,7.556,7.556,0,0,0-1.961-2.912l-.11-.1q-.236-.192-.487-.361a20.732,20.732,0,0,1,2.963-.338c.477-.018.958-.02,1.435,0l.074,0c.609.027,1.222.082,1.826.163C239.836,767.4,239.831,768.993,239.821,770.5Zm-11.309-2.987a5.219,5.219,0,0,1,3.7.956,5.731,5.731,0,0,1,1.114,1.618,4.691,4.691,0,0,1,.2.59l-.473.054a32.677,32.677,0,0,0-7.144,1.58l-.058.02a30.164,30.164,0,0,0-5.871,2.648A20.853,20.853,0,0,1,228.511,767.516Zm-9.029,11.273c.118-.093.24-.185.364-.276l.078-.057q.158-.115.324-.229l.145-.1q.134-.091.273-.181l.221-.141.211-.131c.1-.062.2-.123.307-.185l.136-.08q.2-.115.4-.228l.052-.029a32.661,32.661,0,0,1,11.814-3.6c-.339,4.078-5.262,9.709-9.23,14.249a42.519,42.519,0,0,0-3.689,4.347,24.078,24.078,0,0,0-2.116,3.032,20.58,20.58,0,0,1-1.036-2.525l-.048-.141c-.024-.069-.048-.138-.07-.208h0c-.023-.072-.043-.144-.064-.217l-.061-.209c-.055-.185-.109-.371-.158-.558-.01-.04-.02-.081-.029-.122l-.026-.11c-.063-.254-.124-.509-.177-.767l-.033-.173c-.055-.276-.105-.554-.149-.835l-.023-.16c-.042-.282-.078-.566-.108-.851l-.018-.185q-.039-.406-.062-.816c0-.087-.008-.174-.012-.262-.01-.234-.015-.468-.018-.7,0-.139,0-.277,0-.417s.006-.3.012-.469c.008-.226.016-.452.032-.681l.007-.087a20.377,20.377,0,0,1,.6-3.633,1.3,1.3,0,0,0,.118-.157A8.881,8.881,0,0,1,219.482,778.789Zm1.2,19.352a1.077,1.077,0,0,1,.007-.117c.172-1.6,3.28-5.163,6.04-8.322,4.6-5.264,9.8-11.218,9.968-16.343,1.031-.021,2.07.008,3.1.089-.241,19.554-1.506,23.8-6.683,32.835a20.517,20.517,0,0,1-12.435-8.011A1.259,1.259,0,0,0,220.679,798.14Z" transform="translate(-79.72 0)" fill="#ffd843"/><g transform="translate(116.01 792.883)"><path d="M145.966,933.9a.29.29,0,0,0,.194-.047l7.978-5.332c-.179-.572-.347-1.149-.489-1.734-.052-.215-.094-.434-.141-.65L145.8,933.4a.29.29,0,0,0,.166.5Z" transform="translate(-140.219 -926.134)" fill="#ffd843"/><path d="M138.57,967.042a.29.29,0,0,0,.194-.047l12-8.024a27.569,27.569,0,0,1-1.436-2.728l-10.929,10.3a.29.29,0,0,0,.166.5Z" transform="translate(-134.19 -950.677)" fill="#ffd843"/><path d="M231.224,1027.055q-.619-.272-1.221-.574c-.173-.086-.339-.183-.51-.273l-7.727,7.281a.29.29,0,0,0,.36.452l9.848-6.582C231.724,1027.259,231.471,1027.163,231.224,1027.055Z" transform="translate(-202.144 -1007.71)" fill="#ffd843"/><path d="M133.721,980.475,116.1,997.081a.29.29,0,0,0,.36.452l20.234-13.524A27.657,27.657,0,0,1,133.721,980.475Z" transform="translate(-116.01 -970.43)" fill="#ffd843"/><path d="M190.611,1008.3l-10.521,9.916a.29.29,0,0,0,.36.452l12.679-8.474A27.522,27.522,0,0,1,190.611,1008.3Z" transform="translate(-168.171 -993.111)" fill="#ffd843"/></g></g></svg>