<svg xmlns="http://www.w3.org/2000/svg" width="60.688" height="38.389" viewBox="0 0 60.688 38.389">
  <g id="shipped" transform="translate(0 -94.062)">
    <g id="Gruppe_5" data-name="Gruppe 5" transform="translate(0 94.062)">
      <g id="Gruppe_4" data-name="Gruppe 4">
        <path id="Pfad_10" data-name="Pfad 10" d="M56.44,110.336l-1.572-6.286a.95.95,0,0,0,.752-.929v-1.014a4,4,0,0,0-3.991-3.991H44.471V96.026a1.966,1.966,0,0,0-1.964-1.964H6.018a1.966,1.966,0,0,0-1.964,1.964v17.231a.95.95,0,0,0,1.9,0V96.026a.063.063,0,0,1,.063-.063H42.507a.063.063,0,0,1,.063.063v17.231a.95.95,0,0,0,1.9,0V112.18H55.685a3.11,3.11,0,0,1,2.953,2.154H55.683a.95.95,0,0,0-.95.95v2.027a2.981,2.981,0,0,0,2.977,2.977h1.077v4.181H56.3a6.016,6.016,0,0,0-11.375,0h-.458v-7.158a.95.95,0,1,0-1.9,0v7.158H22.855a6.016,6.016,0,0,0-11.375,0H6.018a.063.063,0,0,1-.063-.063v-2.091h4.118a.95.95,0,0,0,0-1.9H.95a.95.95,0,0,0,0,1.9h3.1v2.091a1.966,1.966,0,0,0,1.964,1.964h5.133c0,.021,0,.042,0,.063a6.018,6.018,0,0,0,12.036,0c0-.021,0-.042,0-.063H44.6c0,.021,0,.042,0,.063a6.018,6.018,0,0,0,12.036,0c0-.021,0-.042,0-.063h3.106a.95.95,0,0,0,.95-.95V115.284A5.012,5.012,0,0,0,56.44,110.336Zm-11.969-10.32h7.158a2.093,2.093,0,0,1,2.091,2.091v.063H44.471Zm0,10.262v-6.208h8.444l1.552,6.208Zm-27.3,20.272a4.118,4.118,0,1,1,4.118-4.118A4.122,4.122,0,0,1,17.168,130.551Zm33.448,0a4.118,4.118,0,1,1,4.118-4.118A4.122,4.122,0,0,1,50.616,130.551Zm8.172-12.163H57.711a1.078,1.078,0,0,1-1.077-1.077v-1.077h2.154v2.154Z" transform="translate(0 -94.062)" fill="#262625"/>
      </g>
    </g>
    <g id="Gruppe_7" data-name="Gruppe 7" transform="translate(15.204 124.469)">
      <g id="Gruppe_6" data-name="Gruppe 6">
        <path id="Pfad_11" data-name="Pfad 11" d="M130.231,350.6a1.964,1.964,0,1,0,1.964,1.964A1.966,1.966,0,0,0,130.231,350.6Z" transform="translate(-128.267 -350.597)" fill="#262625"/>
      </g>
    </g>
    <g id="Gruppe_9" data-name="Gruppe 9" transform="translate(48.652 124.469)">
      <g id="Gruppe_8" data-name="Gruppe 8">
        <path id="Pfad_12" data-name="Pfad 12" d="M412.419,350.6a1.964,1.964,0,1,0,1.964,1.964A1.966,1.966,0,0,0,412.419,350.6Z" transform="translate(-410.455 -350.597)" fill="#262625"/>
      </g>
    </g>
    <g id="Gruppe_11" data-name="Gruppe 11" transform="translate(24.326 120.415)">
      <g id="Gruppe_10" data-name="Gruppe 10" transform="translate(0 0)">
        <path id="Pfad_13" data-name="Pfad 13" d="M220.367,316.393h-14.19a.95.95,0,1,0,0,1.9h14.19a.95.95,0,0,0,0-1.9Z" transform="translate(-205.227 -316.393)" fill="#262625"/>
      </g>
    </g>
    <g id="Gruppe_13" data-name="Gruppe 13" transform="translate(2.027 116.361)">
      <g id="Gruppe_12" data-name="Gruppe 12" transform="translate(0 0)">
        <path id="Pfad_14" data-name="Pfad 14" d="M30.215,282.188H18.052a.95.95,0,0,0,0,1.9H30.215a.95.95,0,0,0,0-1.9Z" transform="translate(-17.102 -282.188)" fill="#262625"/>
      </g>
    </g>
    <g id="Gruppe_15" data-name="Gruppe 15" transform="translate(17.231 103.184)">
      <g id="Gruppe_14" data-name="Gruppe 14" transform="translate(0 0)">
        <path id="Pfad_15" data-name="Pfad 15" d="M161.182,171.3a.95.95,0,0,0-1.344,0l-8.45,8.45-4.4-4.4a.95.95,0,0,0-1.344,1.344l5.068,5.068a.95.95,0,0,0,1.344,0l9.122-9.122A.95.95,0,0,0,161.182,171.3Z" transform="translate(-145.37 -171.023)" fill="#262625"/>
      </g>
    </g>
  </g>
</svg>
